<?xml version="1.0" encoding="UTF-8" standalone="no"?>
<svg width="512px" height="512px" viewBox="0 0 512 512" version="1.1" xmlns="http://www.w3.org/2000/svg" xmlns:xlink="http://www.w3.org/1999/xlink">
    <g id="Page-1" stroke="none" stroke-width="1" fill="none" fill-rule="evenodd">
        <path d="M189.88,423.52 C189.368,442.976 175.032,451.68 160.184,451.68 C145.848,451.68 131,442.464 131,425.568 L131,424.032 C133.048,384.096 133.56,339.04 133.56,295.52 C133.56,242.784 132.536,192.608 132.536,156.768 C132.536,93.792 133.048,60 233.4,60 C244.152,60 254.392,60.512 262.072,61.024 C342.968,66.144 380.344,120.928 380.344,176.224 C380.344,233.056 340.92,290.912 269.24,298.08 C256.952,299.616 245.176,300.64 232.376,300.64 C220.6,300.64 208.312,299.616 195,296.544 C193.464,296.032 192.44,296.032 191.416,296.032 C188.856,296.032 188.344,297.568 188.344,301.664 C188.344,333.408 189.88,369.76 189.88,403.552 L189.88,423.52 Z M256.952,114.272 C256.952,114.272 244.664,113.76 232.376,113.76 C191.416,113.76 186.808,119.392 186.808,167.008 C186.808,184.928 187.32,205.92 187.32,223.84 L187.32,232.544 C187.32,243.296 197.56,246.88 229.304,246.88 C239.032,246.88 249.784,246.368 260.536,245.344 C299.448,241.76 323,206.432 323,173.664 C323,142.944 303.032,114.272 256.952,114.272 Z" id="P" fill="#000000"></path>
    </g>
</svg>
